<?xml version="1.0" encoding="UTF-8" standalone="no"?>
<!-- Created with Inkscape (http://www.inkscape.org/) -->

<svg
   xmlns:dc="http://purl.org/dc/elements/1.1/"
   xmlns:cc="http://creativecommons.org/ns#"
   xmlns:rdf="http://www.w3.org/1999/02/22-rdf-syntax-ns#"
   xmlns:svg="http://www.w3.org/2000/svg"
   xmlns="http://www.w3.org/2000/svg"
   xmlns:sodipodi="http://sodipodi.sourceforge.net/DTD/sodipodi-0.dtd"
   xmlns:inkscape="http://www.inkscape.org/namespaces/inkscape"
   width="300"
   height="300"
   id="svg3045"
   version="1.1"
   inkscape:version="0.48.3.1 r9886"
   sodipodi:docname="rabit.svg">
  <defs
     id="defs3047" />
  <sodipodi:namedview
     id="base"
     pagecolor="#ffffff"
     bordercolor="#666666"
     borderopacity="1.0"
     inkscape:pageopacity="0.0"
     inkscape:pageshadow="2"
     inkscape:zoom="2.8"
     inkscape:cx="119.36297"
     inkscape:cy="191.42857"
     inkscape:document-units="px"
     inkscape:current-layer="layer1"
     showgrid="false"
     inkscape:window-width="1364"
     inkscape:window-height="747"
     inkscape:window-x="0"
     inkscape:window-y="19"
     inkscape:window-maximized="0" />
  <metadata
     id="metadata3050">
    <rdf:RDF>
      <cc:Work
         rdf:about="">
        <dc:format>image/svg+xml</dc:format>
        <dc:type
           rdf:resource="http://purl.org/dc/dcmitype/StillImage" />
        <dc:title />
      </cc:Work>
    </rdf:RDF>
  </metadata>
  <g
     inkscape:label="Layer 1"
     inkscape:groupmode="layer"
     id="layer1"
     transform="translate(0,-752.36218)">
    <path
       inkscape:connector-curvature="0"
       d="m 79.208959,835.23092 c 0,0 2.433745,-1.09593 2.433745,-10.58153 0,-9.48705 -2.028121,-30.2853 13.388806,-50.35388 15.41533,-20.06858 25.96155,-24.81283 33.26439,-20.43341 7.30124,4.37941 10.14382,40.50199 8.51971,51.44836 -1.62249,10.94637 -12.17033,23.35207 -12.17033,31.74462 0,8.39255 -3.24499,9.12366 -3.65061,13.86646 -0.40402,4.7428 2.43374,14.23129 3.65061,16.05544 l 1.01486,1.45932 c 0,0 20.99467,-10.94636 39.24935,-10.67238 18.25469,0.27398 47.46445,-1.09449 80.93406,24.08317 33.46962,25.17765 39.55398,53.91133 39.85699,67.59465 0.30463,13.68333 -3.65061,16.42028 -3.65061,16.42028 0,0 3.95524,-3.00949 11.25647,-3.83145 0,0 6.6936,-0.54652 6.6936,-3.55746 0,0 -8.21509,22.44065 -17.03782,29.831 -8.82273,7.38891 -8.5181,19.97769 -16.42858,21.89419 -7.91207,1.915 -11.25808,2.189 -11.25808,2.189 0,0 1.21687,7.3889 -0.91225,9.0313 -2.13073,1.6425 -2.13073,5.2 -2.13073,7.9369 0,2.737 0,4.9245 -22.21154,8.756 -22.21154,3.8314 -57.81027,11.7683 -64.19925,10.3998 -6.38898,-1.367 -7.91207,-1.367 -12.77956,-1.367 -4.86749,0 -20.69005,0.2725 -14.29946,-6.5699 6.38898,-6.8409 7.60585,-7.1149 10.95346,-12.0423 3.346,-4.9245 2.73837,-7.934 17.95167,-9.5779 15.21331,-1.6424 18.25629,-3.0095 18.25629,-3.0095 0,0 -30.72964,1.6425 -36.51097,2.189 -5.77975,0.548 -11.5611,0.8205 -11.5611,0.8205 0,0 -6.69361,13.9588 -6.99822,19.4312 -0.30462,5.4725 0.30301,5.7465 -6.08436,8.7574 -6.39059,3.0095 -16.73481,5.4725 -26.776011,5.1985 -10.041205,-0.274 -16.734807,0.2725 -11.256473,-8.2094 5.476728,-8.4834 12.17033,-10.9464 12.473345,-14.2299 -0.912254,0 -7.605855,0.5466 -12.17033,-1.6424 -4.564476,-2.1904 -7.605856,-1.915 -0.607635,-7.3889 6.998221,-5.4754 6.998221,-7.6629 6.998221,-10.6724 0,-3.0109 0.304619,-13.41079 -7.60746,-19.97775 -7.910473,-6.56695 -34.991103,-15.87225 -40.466229,-24.90361 -5.47673,-9.02993 -10.34422,-24.35571 -4.259857,-39.13353 l 1.216873,-1.64246 c 0,0 -7.605855,-9.02992 -9.127348,-14.23129 -1.521491,-5.19703 -3.650618,-17.23934 4.259857,-27.36664 l 3.041381,-4.10399 c 0,0 -1.521493,-4.92594 0,-8.4834 1.521491,-3.55746 1.521491,-3.55746 1.521491,-3.55746 0,0 -0.303015,-7.66289 -1.216873,-10.67238 -0.913857,-3.0095 -2.433745,-3.28348 -5.173713,-5.47247 -2.738364,-2.19043 0,-4.37797 -2.433746,-9.03137 C 30.729645,836.97 22.514551,828.76058 17.342441,821.9182 12.170331,815.07726 0,780.86968 0,772.65882 c 0,-8.20942 0.30461901,-10.94637 9.1273474,-6.02043 8.8243316,4.92594 32.5573596,24.3557 41.9877226,31.47207 9.431966,7.11492 23.733027,27.36664 23.733027,33.11165 0,0 -1.216873,3.55746 0,3.83145 1.21527,0.26821 4.360862,0.17736 4.360862,0.17736 z"
       id="path17"
       inkscape:export-filename="/home/psa/Projects/rplay/qml/rplay/RplayView/images/rabit.png"
       inkscape:export-xdpi="90"
       inkscape:export-ydpi="90"
       style="fill:#ffffff;fill-opacity:1" />
  </g>
</svg>
