<?xml version="1.0" encoding="UTF-8" standalone="no"?>
<!-- Generator: Adobe Illustrator 15.1.0, SVG Export Plug-In . SVG Version: 6.00 Build 0)  -->

<svg
   xmlns:dc="http://purl.org/dc/elements/1.1/"
   xmlns:cc="http://creativecommons.org/ns#"
   xmlns:rdf="http://www.w3.org/1999/02/22-rdf-syntax-ns#"
   xmlns:svg="http://www.w3.org/2000/svg"
   xmlns="http://www.w3.org/2000/svg"
   xmlns:xlink="http://www.w3.org/1999/xlink"
   xmlns:sodipodi="http://sodipodi.sourceforge.net/DTD/sodipodi-0.dtd"
   xmlns:inkscape="http://www.inkscape.org/namespaces/inkscape"
   version="1.1"
   x="0px"
   y="0px"
   width="30"
   height="30"
   viewBox="0 0 30 30"
   xml:space="preserve"
   id="svg2"
   inkscape:version="0.48.3.1 r9886"
   sodipodi:docname="refresh_cover.svg"
   inkscape:export-filename="/home/psa/Projects/rplay/qml/rplay/RplayView/images/refresh_cover.png"
   inkscape:export-xdpi="90"
   inkscape:export-ydpi="90"><metadata
   id="metadata16"><rdf:RDF><cc:Work
       rdf:about=""><dc:format>image/svg+xml</dc:format><dc:type
         rdf:resource="http://purl.org/dc/dcmitype/StillImage" /><dc:title /></cc:Work></rdf:RDF></metadata><defs
   id="defs14"><linearGradient
     y2="78.000504"
     x2="38.9995"
     y1="0"
     x1="38.9995"
     gradientUnits="userSpaceOnUse"
     id="linearGradient3018"
     xlink:href="#PINK1_3_"
     inkscape:collect="always"
     gradientTransform="translate(1,17)" /><linearGradient
     id="PINK1_3_"
     gradientUnits="userSpaceOnUse"
     x1="38.9995"
     y1="0"
     x2="38.9995"
     y2="78.000504"><stop
       offset="0"
       style="stop-color:#000000;stop-opacity:1;"
       id="stop7-6" /><stop
       offset="0.33899999"
       style="stop-color:#5b5b5b;stop-opacity:1;"
       id="stop9-8" /><stop
       offset="0.72119999"
       style="stop-color:#000000;stop-opacity:1;"
       id="stop11-34" /></linearGradient></defs><sodipodi:namedview
   pagecolor="#ffffff"
   bordercolor="#666666"
   borderopacity="1"
   objecttolerance="10"
   gridtolerance="10"
   guidetolerance="10"
   inkscape:pageopacity="0"
   inkscape:pageshadow="2"
   inkscape:window-width="1364"
   inkscape:window-height="747"
   id="namedview12"
   showgrid="false"
   inkscape:zoom="8.4285714"
   inkscape:cx="16"
   inkscape:cy="18.745763"
   inkscape:window-x="0"
   inkscape:window-y="19"
   inkscape:window-maximized="0"
   inkscape:current-layer="svg2" />
<path
   style="fill:#000000;display:inline;fill-opacity:0.9150579"
   inkscape:connector-curvature="0"
   id="PINK1_1_"
   d="M 30,15 C 30,26.112692 26.113461,30 15,30 3.886538,30 0,26.112692 0,15 0,3.886923 3.886538,0 15,0 26.113461,0 30,3.886923 30,15 z" /><g
   id="Layer_1"
   transform="translate(0,2)">
</g>

<text
   xml:space="preserve"
   style="font-size:36px;font-style:normal;font-weight:normal;line-height:125%;letter-spacing:0px;word-spacing:0px;fill:#999999;fill-opacity:1;stroke:none;font-family:Sans"
   x="1.3050847"
   y="28.220341"
   id="text2993"
   sodipodi:linespacing="125%"><tspan
     sodipodi:role="line"
     id="tspan2995"
     x="1.3050847"
     y="28.220341">C</tspan></text>

<g
   id="loop_x5F_alt2"
   style="fill:#e6e6e6;fill-opacity:0.83461540999999995"
   transform="matrix(0.5,0,0,0.5,13.559322,0.5614407)">
	<g
   id="g6"
   style="fill:#e6e6e6;fill-opacity:0.83461540999999995">
		<path
   style="fill:#e6e6e6;fill-opacity:0.83461540999999995"
   d="M 19.945,20 25.953,12 32,20 h -4 v 2 c 0,3.309 -2.691,6 -6,6 H 10 C 6.691,28 4,25.309 4,22 v -2 h 4 v 2 c 0,1.102 0.898,2 2,2 h 12 c 1.102,0 2,-0.898 2,-2 v -2 h -4.055 z"
   id="path8"
   inkscape:connector-curvature="0" />
		<path
   style="fill:#e6e6e6;fill-opacity:0.83461540999999995"
   d="M 12.055,8 6.047,16 0,8 H 4 V 6 C 4,2.691 6.691,0 10,0 h 12 c 3.309,0 6,2.691 6,6 V 8 H 24 V 6 C 24,4.898 23.102,4 22,4 H 10 C 8.898,4 8,4.898 8,6 v 2 h 4.055 z"
   id="path10"
   inkscape:connector-curvature="0" />
	</g>
</g></svg>